<svg width="16" height="16" viewBox="0 0 16 16" fill="none" xmlns="http://www.w3.org/2000/svg">
<g clip-path="url(#clip0_1278_3126)">
<path d="M14.0001 2L9.66677 14C9.63753 14.0638 9.59057 14.1179 9.53148 14.1558C9.47239 14.1938 9.40365 14.2139 9.33344 14.2139C9.26323 14.2139 9.1945 14.1938 9.13541 14.1558C9.07632 14.1179 9.02936 14.0638 9.00011 14L6.66677 9.33333L2.00011 7C1.93628 6.97075 1.88219 6.92379 1.84427 6.8647C1.80635 6.80561 1.78619 6.73688 1.78619 6.66667C1.78619 6.59646 1.80635 6.52772 1.84427 6.46863C1.88219 6.40954 1.93628 6.36258 2.00011 6.33333L14.0001 2Z" stroke="white" stroke-width="2" stroke-linecap="round" stroke-linejoin="round"/>
</g>
<defs>
<clipPath id="clip0_1278_3126">
<rect width="16" height="16" fill="white"/>
</clipPath>
</defs>
</svg>
