<svg width="24" height="24" viewBox="0 0 24 24" fill="none" xmlns="http://www.w3.org/2000/svg">
<path d="M11.9999 4.354C12.5373 3.7447 13.2476 3.31351 14.0361 3.11779C14.8246 2.92208 15.6541 2.97112 16.414 3.2584C17.174 3.54568 17.8285 4.05757 18.2904 4.72596C18.7523 5.39435 18.9997 6.18754 18.9997 7C18.9997 7.81246 18.7523 8.60565 18.2904 9.27404C17.8285 9.94243 17.174 10.4543 16.414 10.7416C15.6541 11.0289 14.8246 11.0779 14.0361 10.8822C13.2476 10.6865 12.5373 10.2553 11.9999 9.646M14.9999 21H2.99988V20C2.99988 18.4087 3.63202 16.8826 4.75724 15.7574C5.88246 14.6321 7.40858 14 8.99988 14C10.5912 14 12.1173 14.6321 13.2425 15.7574C14.3677 16.8826 14.9999 18.4087 14.9999 20V21ZM14.9999 21H20.9999V20C21 18.9467 20.7229 17.9119 20.1963 16.9997C19.6698 16.0875 18.9124 15.3299 18.0002 14.8032C17.0881 14.2765 16.0534 13.9992 15.0001 13.9992C13.9468 13.9991 12.9121 14.2764 11.9999 14.803M12.9999 7C12.9999 8.06087 12.5785 9.07828 11.8283 9.82843C11.0782 10.5786 10.0607 11 8.99988 11C7.93901 11 6.9216 10.5786 6.17145 9.82843C5.42131 9.07828 4.99988 8.06087 4.99988 7C4.99988 5.93913 5.42131 4.92172 6.17145 4.17157C6.9216 3.42143 7.93901 3 8.99988 3C10.0607 3 11.0782 3.42143 11.8283 4.17157C12.5785 4.92172 12.9999 5.93913 12.9999 7Z" stroke="white" stroke-width="2" stroke-linecap="round" stroke-linejoin="round"/>
</svg>
