<svg width="16" height="18" viewBox="0 0 16 18" fill="none" xmlns="http://www.w3.org/2000/svg">
<path d="M8 0L0 7V17C0 17.2652 0.120408 17.5196 0.334735 17.7071C0.549062 17.8946 0.839752 18 1.14286 18H4.57143C4.87453 18 5.16522 17.8946 5.37955 17.7071C5.59388 17.5196 5.71428 17.2652 5.71428 17V13C5.71428 12.7348 5.83469 12.4804 6.04902 12.2929C6.26335 12.1054 6.55404 12 6.85714 12H9.14286C9.44596 12 9.73665 12.1054 9.95098 12.2929C10.1653 12.4804 10.2857 12.7348 10.2857 13V17C10.2857 17.2652 10.4061 17.5196 10.6204 17.7071C10.8348 17.8946 11.1255 18 11.4286 18H14.8571C15.1602 18 15.4509 17.8946 15.6653 17.7071C15.8796 17.5196 16 17.2652 16 17V7L8 0Z" fill="white"/>
</svg>
