<svg width="24" height="24" viewBox="0 0 24 24" fill="none" xmlns="http://www.w3.org/2000/svg">
<path d="M20.9997 11.5C21.0032 12.8199 20.6948 14.1219 20.0997 15.3C19.3942 16.7118 18.3095 17.8992 16.9672 18.7293C15.6249 19.5594 14.078 19.9994 12.4997 20C11.1799 20.0034 9.87786 19.6951 8.69975 19.1L2.99976 21L4.89975 15.3C4.30468 14.1219 3.99631 12.8199 3.99975 11.5C4.00036 9.92177 4.44037 8.37487 5.27047 7.03257C6.10058 5.69027 7.288 4.60559 8.69975 3.90003C9.87786 3.30496 11.1799 2.99659 12.4997 3.00003H12.9997C15.0841 3.11502 17.0528 3.99479 18.5289 5.47088C20.005 6.94698 20.8847 8.91567 20.9997 11V11.5Z" stroke="#4B164C" stroke-width="1.5" stroke-linecap="round" stroke-linejoin="round"/>
</svg>
