<svg width="28" height="22" viewBox="0 0 28 22" fill="none" xmlns="http://www.w3.org/2000/svg">
<mask id="mask0_30_548" style="mask-type:luminance" maskUnits="userSpaceOnUse" x="0" y="0" width="28" height="22">
<rect x="1" y="1" width="26" height="20" rx="2" fill="white" stroke="white"/>
</mask>
<g mask="url(#mask0_30_548)">
<path fill-rule="evenodd" clip-rule="evenodd" d="M3 1C1.89543 1 1 1.89543 1 3V19C1 20.1046 1.89543 21 3 21H25C26.1046 21 27 20.1046 27 19V3C27 1.89543 26.1046 1 25 1H3Z" fill="#3D58DB" stroke="black" stroke-opacity="0.04"/>
<mask id="mask1_30_548" style="mask-type:luminance" maskUnits="userSpaceOnUse" x="0" y="0" width="28" height="22">
<path fill-rule="evenodd" clip-rule="evenodd" d="M1 1V21H27V1H1Z" fill="white" stroke="white"/>
</mask>
<g mask="url(#mask1_30_548)">
<path fill-rule="evenodd" clip-rule="evenodd" d="M3 1C1.89543 1 1 1.89543 1 3V7.66667H27V3C27 1.89543 26.1046 1 25 1H3Z" fill="#F7FCFF" stroke="black" stroke-opacity="0.04"/>
<path fill-rule="evenodd" clip-rule="evenodd" d="M1 14.3335V19.0002C1 20.1047 1.89543 21.0002 3 21.0002H25C26.1046 21.0002 27 20.1047 27 19.0002V14.3335H1Z" fill="#C51918" stroke="black" stroke-opacity="0.04"/>
</g>
</g>
</svg>
